<svg width="1200" height="640" xmlns="http://www.w3.org/2000/svg">
<rect width="1200" height="640" fill="#1a0f14"/>
<circle cx="1020" cy="100" r="360" fill="#c47d8e" opacity="0.1"/>
<circle cx="1080" cy="180" r="220" fill="#c47d8e" opacity="0.08"/>
<polygon points="0,640 0,520 280,640" fill="#c47d8e" opacity="0.06"/>
<rect x="740" y="110" width="360" height="260" rx="24" fill="rgba(196,125,142,0.05)" stroke="rgba(196,125,142,0.08)" stroke-width="1.5"/>
<text x="780" y="160" font-family="system-ui" font-size="28" fill="#c47d8e" font-weight="700">5</text>
<rect x="810" y="142" width="120" height="10" rx="5" fill="rgba(196,125,142,0.2)"/>
<rect x="810" y="162" width="80" height="8" rx="4" fill="rgba(196,125,142,0.1)"/>
<circle cx="780" cy="210" r="12" fill="rgba(52,211,153,0.15)" stroke="rgba(52,211,153,0.25)" stroke-width="1"/><path d="M776,210 L779,213 L784,207" fill="none" stroke="#34d399" stroke-width="1.5" stroke-linecap="round"/>
<rect x="800" y="202" width="200" height="8" rx="4" fill="rgba(196,125,142,0.12)"/>
<circle cx="780" cy="250" r="12" fill="rgba(52,211,153,0.15)" stroke="rgba(52,211,153,0.25)" stroke-width="1"/><path d="M776,250 L779,253 L784,247" fill="none" stroke="#34d399" stroke-width="1.5" stroke-linecap="round"/>
<rect x="800" y="242" width="180" height="8" rx="4" fill="rgba(196,125,142,0.12)"/>
<circle cx="780" cy="290" r="12" fill="rgba(196,125,142,0.15)" stroke="rgba(196,125,142,0.2)" stroke-width="1"/>
<rect x="800" y="282" width="160" height="8" rx="4" fill="rgba(196,125,142,0.08)"/>
<rect x="72" y="72" width="96" height="96" rx="24" fill="#c47d8e"/>
<text x="100" y="134" font-family="Georgia, serif" font-size="52" fill="white" font-weight="700">5</text>
<text x="80" y="440" font-family="Georgia, serif" font-size="60" fill="white" font-weight="700" letter-spacing="-1">5 tips to master</text>
<text x="80" y="516" font-family="Georgia, serif" font-size="60" fill="#c47d8e" font-weight="700" letter-spacing="-1">Nitro like a pro</text>
<text x="80" y="590" font-family="system-ui" font-size="22" fill="rgba(255,255,255,0.3)" letter-spacing="6">NITRO BLOG</text>
</svg>
