<svg width="1200" height="640" xmlns="http://www.w3.org/2000/svg">
<rect width="1200" height="640" fill="#0a1a1a"/>
<circle cx="920" cy="220" r="180" fill="rgba(20,184,166,0.04)" stroke="rgba(20,184,166,0.08)" stroke-width="2"/>
<circle cx="920" cy="220" r="120" fill="rgba(20,184,166,0.05)" stroke="rgba(20,184,166,0.1)" stroke-width="2"/>
<circle cx="920" cy="220" r="60" fill="rgba(20,184,166,0.08)" stroke="rgba(20,184,166,0.15)" stroke-width="2"/>
<circle cx="920" cy="220" r="16" fill="#14b8a6" opacity="0.5"/>
<line x1="920" y1="160" x2="920" y2="36" stroke="rgba(20,184,166,0.12)" stroke-width="3" stroke-dasharray="8,8"/>
<line x1="980" y1="220" x2="1100" y2="220" stroke="rgba(20,184,166,0.12)" stroke-width="3" stroke-dasharray="8,8"/>
<line x1="860" y1="220" x2="740" y2="220" stroke="rgba(20,184,166,0.08)" stroke-width="2" stroke-dasharray="8,8"/>
<line x1="920" y1="280" x2="920" y2="400" stroke="rgba(20,184,166,0.08)" stroke-width="2" stroke-dasharray="8,8"/>
<line x1="964" y1="176" x2="1020" y2="120" stroke="rgba(20,184,166,0.08)" stroke-width="2" stroke-dasharray="8,8"/>
<text x="924" y="56" font-family="system-ui" font-size="36" fill="rgba(20,184,166,0.25)" font-weight="700">1</text>
<text x="1096" y="230" font-family="system-ui" font-size="36" fill="rgba(20,184,166,0.25)" font-weight="700">2</text>
<text x="712" y="230" font-family="system-ui" font-size="36" fill="rgba(20,184,166,0.2)" font-weight="700">3</text>
<text x="924" y="420" font-family="system-ui" font-size="36" fill="rgba(20,184,166,0.2)" font-weight="700">4</text>
<text x="1024" y="112" font-family="system-ui" font-size="36" fill="rgba(20,184,166,0.2)" font-weight="700">5</text>
<polygon points="0,640 0,460 360,640" fill="rgba(20,184,166,0.04)"/>
<rect x="72" y="72" width="104" height="104" rx="28" fill="#0d9488"/>
<circle cx="124" cy="110" r="20" fill="none" stroke="white" stroke-width="4"/>
<line x1="124" y1="130" x2="124" y2="152" stroke="white" stroke-width="4" stroke-linecap="round"/>
<text x="80" y="460" font-family="Georgia, serif" font-size="64" fill="white" font-weight="700" letter-spacing="-1">5 tips to get the</text>
<text x="80" y="536" font-family="Georgia, serif" font-size="64" fill="#5eead4" font-weight="700" letter-spacing="-1">most out of Nitro</text>
<text x="80" y="600" font-family="system-ui" font-size="24" fill="rgba(255,255,255,0.35)" letter-spacing="6">NITRO BLOG</text>
</svg>
