<svg width="1200" height="640" xmlns="http://www.w3.org/2000/svg">
<rect width="1200" height="640" fill="#1a0f14"/>
<circle cx="1000" cy="130" r="350" fill="#f59e0b" opacity="0.06"/>
<circle cx="1060" cy="210" r="210" fill="#E1306C" opacity="0.04"/>
<polygon points="0,640 0,530 260,640" fill="#c47d8e" opacity="0.06"/>
<rect x="740" y="110" width="360" height="270" rx="24" fill="rgba(245,158,11,0.03)" stroke="rgba(245,158,11,0.08)" stroke-width="1.5"/>
<circle cx="920" cy="230" r="70" fill="none" stroke="rgba(245,158,11,0.12)" stroke-width="2"/>
<circle cx="920" cy="230" r="50" fill="none" stroke="rgba(245,158,11,0.08)" stroke-width="1"/>
<line x1="920" y1="230" x2="920" y2="185" stroke="rgba(245,158,11,0.4)" stroke-width="2.5" stroke-linecap="round"/>
<line x1="920" y1="230" x2="950" y2="245" stroke="rgba(245,158,11,0.3)" stroke-width="2" stroke-linecap="round"/>
<circle cx="920" cy="230" r="4" fill="rgba(245,158,11,0.5)"/>
<text x="920" y="165" font-family="system-ui" font-size="12" fill="rgba(245,158,11,0.4)" text-anchor="middle">12</text>
<text x="995" y="234" font-family="system-ui" font-size="12" fill="rgba(245,158,11,0.4)" text-anchor="middle">3</text>
<text x="920" y="315" font-family="system-ui" font-size="12" fill="rgba(245,158,11,0.4)" text-anchor="middle">6</text>
<text x="845" y="234" font-family="system-ui" font-size="12" fill="rgba(245,158,11,0.4)" text-anchor="middle">9</text>
<rect x="850" y="330" width="140" height="28" rx="8" fill="rgba(225,48,108,0.12)"/>
<text x="920" y="349" font-family="system-ui" font-size="13" fill="rgba(225,48,108,0.5)" text-anchor="middle" font-weight="500">Peak: 7–9 PM WAT</text>
<rect x="72" y="72" width="96" height="96" rx="24" fill="#f59e0b"/>
<text x="98" y="138" font-family="system-ui" font-size="46" fill="white">⏰</text>
<text x="80" y="440" font-family="Georgia, serif" font-size="56" fill="white" font-weight="700" letter-spacing="-1">Best time to post</text>
<text x="80" y="516" font-family="Georgia, serif" font-size="56" fill="#f59e0b" font-weight="700" letter-spacing="-1">on Instagram</text>
<text x="80" y="590" font-family="system-ui" font-size="22" fill="rgba(255,255,255,0.3)" letter-spacing="6">NITRO BLOG</text>
</svg>
