<svg width="1200" height="640" xmlns="http://www.w3.org/2000/svg">
<rect width="1200" height="640" fill="#1a0f14"/>
<circle cx="1000" cy="120" r="350" fill="#c47d8e" opacity="0.08"/>
<circle cx="1060" cy="200" r="210" fill="#c47d8e" opacity="0.06"/>
<polygon points="0,640 0,530 260,640" fill="#c47d8e" opacity="0.06"/>
<rect x="740" y="110" width="360" height="270" rx="24" fill="rgba(196,125,142,0.04)" stroke="rgba(196,125,142,0.08)" stroke-width="1.5"/>
<text x="780" y="158" font-family="system-ui" font-size="14" fill="rgba(196,125,142,0.5)" font-weight="600">#1</text>
<rect x="810" y="142" width="250" height="28" rx="8" fill="rgba(196,125,142,0.15)"/>
<rect x="820" y="152" width="60" height="8" rx="4" fill="rgba(196,125,142,0.3)"/>
<text x="780" y="208" font-family="system-ui" font-size="14" fill="rgba(196,125,142,0.35)" font-weight="600">#2</text>
<rect x="810" y="192" width="250" height="28" rx="8" fill="rgba(196,125,142,0.08)"/>
<rect x="820" y="202" width="50" height="8" rx="4" fill="rgba(196,125,142,0.15)"/>
<text x="780" y="258" font-family="system-ui" font-size="14" fill="rgba(196,125,142,0.25)" font-weight="600">#3</text>
<rect x="810" y="242" width="250" height="28" rx="8" fill="rgba(196,125,142,0.05)"/>
<rect x="820" y="252" width="40" height="8" rx="4" fill="rgba(196,125,142,0.1)"/>
<circle cx="1040" cy="155" r="16" fill="rgba(52,211,153,0.15)"/>
<path d="M1034,155 L1038,159 L1046,151" fill="none" stroke="#34d399" stroke-width="2" stroke-linecap="round"/>
<rect x="780" y="300" width="100" height="32" rx="8" fill="rgba(196,125,142,0.2)"/>
<text x="830" y="321" font-family="system-ui" font-size="13" fill="#c47d8e" text-anchor="middle" font-weight="600">Compare</text>
<rect x="72" y="72" width="96" height="96" rx="24" fill="#c47d8e"/>
<text x="96" y="140" font-family="Georgia, serif" font-size="56" fill="white" font-weight="700">★</text>
<text x="80" y="440" font-family="Georgia, serif" font-size="56" fill="white" font-weight="700" letter-spacing="-1">Best SMM panel</text>
<text x="80" y="516" font-family="Georgia, serif" font-size="56" fill="#c47d8e" font-weight="700" letter-spacing="-1">Nigeria 2026</text>
<text x="80" y="590" font-family="system-ui" font-size="22" fill="rgba(255,255,255,0.3)" letter-spacing="6">NITRO BLOG</text>
</svg>
