<svg width="1200" height="640" xmlns="http://www.w3.org/2000/svg">
<rect width="1200" height="640" fill="#1a0f14"/>
<circle cx="1000" cy="80" r="400" fill="#c47d8e" opacity="0.15"/>
<circle cx="1080" cy="160" r="260" fill="#c47d8e" opacity="0.12"/>
<circle cx="1120" cy="200" r="140" fill="#c47d8e" opacity="0.2"/>
<rect x="680" y="100" width="440" height="60" rx="16" fill="rgba(196,125,142,0.08)" stroke="rgba(196,125,142,0.15)" stroke-width="2"/>
<rect x="700" y="120" width="100" height="12" rx="6" fill="rgba(196,125,142,0.3)"/>
<rect x="820" y="120" width="140" height="12" rx="6" fill="rgba(196,125,142,0.15)"/>
<rect x="980" y="112" width="60" height="28" rx="8" fill="#c47d8e" opacity="0.25"/>
<rect x="680" y="176" width="440" height="60" rx="16" fill="rgba(196,125,142,0.08)" stroke="rgba(196,125,142,0.15)" stroke-width="2"/>
<rect x="700" y="196" width="120" height="12" rx="6" fill="rgba(196,125,142,0.3)"/>
<rect x="840" y="196" width="100" height="12" rx="6" fill="rgba(196,125,142,0.15)"/>
<rect x="980" y="188" width="60" height="28" rx="8" fill="#c47d8e" opacity="0.25"/>
<rect x="680" y="252" width="440" height="60" rx="16" fill="rgba(196,125,142,0.08)" stroke="rgba(196,125,142,0.15)" stroke-width="2"/>
<rect x="700" y="272" width="80" height="12" rx="6" fill="rgba(196,125,142,0.3)"/>
<rect x="800" y="272" width="160" height="12" rx="6" fill="rgba(196,125,142,0.15)"/>
<rect x="980" y="264" width="60" height="28" rx="8" fill="#c47d8e" opacity="0.25"/>
<rect x="780" y="340" width="240" height="56" rx="16" fill="#c47d8e" opacity="0.4"/>
<text x="830" y="376" font-family="system-ui" font-size="20" fill="white" font-weight="500">Place all (3)</text>
<polygon points="0,640 0,480 360,640" fill="#c47d8e" opacity="0.08"/>
<polygon points="0,640 0,560 200,640" fill="#c47d8e" opacity="0.12"/>
<rect x="72" y="72" width="104" height="104" rx="28" fill="#c47d8e"/>
<circle cx="124" cy="114" r="16" fill="none" stroke="white" stroke-width="4"/>
<circle cx="124" cy="114" r="4" fill="white"/>
<path d="M108,140 L140,140" fill="none" stroke="white" stroke-width="4" stroke-linecap="round"/>
<text x="80" y="460" font-family="Georgia, serif" font-size="64" fill="white" font-weight="700" letter-spacing="-1">How to place</text>
<text x="80" y="536" font-family="Georgia, serif" font-size="64" fill="#c47d8e" font-weight="700" letter-spacing="-1">bulk orders</text>
<text x="80" y="600" font-family="system-ui" font-size="24" fill="rgba(255,255,255,0.35)" letter-spacing="6">NITRO BLOG</text>
</svg>
