<svg width="1200" height="640" xmlns="http://www.w3.org/2000/svg">
<rect width="1200" height="640" fill="#1a0f14"/>
<circle cx="1000" cy="130" r="350" fill="#ef4444" opacity="0.06"/>
<circle cx="1060" cy="210" r="210" fill="#ef4444" opacity="0.04"/>
<polygon points="0,640 0,530 260,640" fill="#c47d8e" opacity="0.06"/>
<rect x="740" y="110" width="360" height="270" rx="24" fill="rgba(239,68,68,0.03)" stroke="rgba(239,68,68,0.08)" stroke-width="1.5"/>
<polyline points="790,180 840,185 880,190 920,210 950,260 980,300 1020,330 1060,350" fill="none" stroke="rgba(239,68,68,0.35)" stroke-width="2.5" stroke-linecap="round" stroke-linejoin="round"/>
<polyline points="790,180 840,185 880,190 920,210 950,260 980,300 1020,330 1060,350" fill="none" stroke="rgba(239,68,68,0.08)" stroke-width="20" stroke-linecap="round" stroke-linejoin="round"/>
<circle cx="920" cy="210" r="5" fill="rgba(239,68,68,0.5)"/>
<text x="920" y="200" font-family="system-ui" font-size="11" fill="rgba(239,68,68,0.4)" text-anchor="middle">Drop begins</text>
<path d="M980,310 L990,330 L970,330 Z" fill="rgba(239,68,68,0.3)"/>
<text x="920" y="245" font-family="system-ui" font-size="36" fill="rgba(239,68,68,0.08)" text-anchor="middle" font-weight="700">-47%</text>
<rect x="72" y="72" width="96" height="96" rx="24" fill="#ef4444"/>
<path d="M120,100 L120,140 M108,128 L120,140 L132,128" fill="none" stroke="white" stroke-width="4" stroke-linecap="round" stroke-linejoin="round"/>
<text x="80" y="440" font-family="Georgia, serif" font-size="56" fill="white" font-weight="700" letter-spacing="-1">Why followers</text>
<text x="80" y="516" font-family="Georgia, serif" font-size="56" fill="#ef4444" font-weight="700" letter-spacing="-1">drop after buying</text>
<text x="80" y="590" font-family="system-ui" font-size="22" fill="rgba(255,255,255,0.3)" letter-spacing="6">NITRO BLOG</text>
</svg>
