<svg width="1200" height="640" xmlns="http://www.w3.org/2000/svg">
<rect width="1200" height="640" fill="#1a0f14"/>
<circle cx="1000" cy="100" r="380" fill="#c47d8e" opacity="0.12"/>
<circle cx="1060" cy="180" r="240" fill="#c47d8e" opacity="0.1"/>
<polygon points="0,640 0,500 300,640" fill="#c47d8e" opacity="0.06"/>
<polygon points="0,640 0,580 160,640" fill="#c47d8e" opacity="0.1"/>
<rect x="720" y="100" width="380" height="280" rx="24" fill="rgba(196,125,142,0.06)" stroke="rgba(196,125,142,0.12)" stroke-width="1.5"/>
<circle cx="760" cy="150" r="20" fill="rgba(52,211,153,0.2)" stroke="rgba(52,211,153,0.3)" stroke-width="1.5"/>
<text x="758" y="157" font-family="system-ui" font-size="16" fill="#34d399" text-anchor="middle">1</text>
<rect x="800" y="138" width="140" height="10" rx="5" fill="rgba(196,125,142,0.2)"/>
<rect x="800" y="158" width="100" height="8" rx="4" fill="rgba(196,125,142,0.1)"/>
<circle cx="760" cy="210" r="20" fill="rgba(52,211,153,0.2)" stroke="rgba(52,211,153,0.3)" stroke-width="1.5"/>
<text x="758" y="217" font-family="system-ui" font-size="16" fill="#34d399" text-anchor="middle">2</text>
<rect x="800" y="198" width="160" height="10" rx="5" fill="rgba(196,125,142,0.2)"/>
<rect x="800" y="218" width="120" height="8" rx="4" fill="rgba(196,125,142,0.1)"/>
<circle cx="760" cy="270" r="20" fill="rgba(52,211,153,0.2)" stroke="rgba(52,211,153,0.3)" stroke-width="1.5"/>
<text x="758" y="277" font-family="system-ui" font-size="16" fill="#34d399" text-anchor="middle">3</text>
<rect x="800" y="258" width="130" height="10" rx="5" fill="rgba(196,125,142,0.2)"/>
<rect x="800" y="278" width="90" height="8" rx="4" fill="rgba(196,125,142,0.1)"/>
<rect x="760" y="320" width="300" height="44" rx="12" fill="#c47d8e" opacity="0.3"/>
<text x="870" y="348" font-family="system-ui" font-size="18" fill="white" font-weight="500" text-anchor="middle">Start Growing →</text>
<rect x="72" y="72" width="96" height="96" rx="24" fill="#c47d8e"/>
<path d="M96,120 L120,120 L120,96" fill="none" stroke="white" stroke-width="4" stroke-linecap="round" stroke-linejoin="round"/>
<path d="M108,132 L132,108" fill="none" stroke="white" stroke-width="4" stroke-linecap="round"/>
<text x="80" y="440" font-family="Georgia, serif" font-size="60" fill="white" font-weight="700" letter-spacing="-1">Getting started</text>
<text x="80" y="516" font-family="Georgia, serif" font-size="60" fill="#c47d8e" font-weight="700" letter-spacing="-1">in 60 seconds</text>
<text x="80" y="590" font-family="system-ui" font-size="22" fill="rgba(255,255,255,0.3)" letter-spacing="6">NITRO BLOG</text>
</svg>
