<svg width="1200" height="640" xmlns="http://www.w3.org/2000/svg">
<rect width="1200" height="640" fill="#1a0f14"/>
<circle cx="980" cy="120" r="360" fill="#E1306C" opacity="0.08"/>
<circle cx="1040" cy="200" r="220" fill="#E1306C" opacity="0.06"/>
<polygon points="0,640 0,520 280,640" fill="#c47d8e" opacity="0.06"/>
<rect x="740" y="120" width="360" height="260" rx="24" fill="rgba(225,48,108,0.05)" stroke="rgba(225,48,108,0.1)" stroke-width="1.5"/>
<rect x="780" y="160" width="280" height="40" rx="8" fill="rgba(225,48,108,0.08)"/>
<rect x="800" y="170" width="60" height="20" rx="4" fill="rgba(225,48,108,0.15)"/>
<rect x="872" y="170" width="60" height="20" rx="4" fill="rgba(225,48,108,0.12)"/>
<rect x="944" y="170" width="60" height="20" rx="4" fill="rgba(225,48,108,0.1)"/>
<rect x="780" y="220" width="280" height="120" rx="12" fill="rgba(225,48,108,0.04)" stroke="rgba(225,48,108,0.08)" stroke-width="1"/>
<path d="M860,260 L900,240 L940,270 L980,230" fill="none" stroke="#E1306C" stroke-width="2.5" stroke-linecap="round" stroke-linejoin="round" opacity="0.5"/>
<path d="M860,260 L900,250 L940,260 L980,245" fill="none" stroke="#34d399" stroke-width="2" stroke-linecap="round" stroke-linejoin="round" opacity="0.4"/>
<text x="820" y="320" font-family="system-ui" font-size="14" fill="rgba(225,48,108,0.4)">↑ 340% engagement</text>
<rect x="72" y="72" width="96" height="96" rx="24" fill="linear-gradient(135deg,#E1306C,#C13584)"/>
<rect x="72" y="72" width="96" height="96" rx="24" fill="#E1306C"/>
<rect x="96" y="96" width="48" height="48" rx="12" fill="none" stroke="white" stroke-width="3.5"/>
<circle cx="120" cy="120" r="12" fill="none" stroke="white" stroke-width="3"/>
<circle cx="140" cy="100" r="4" fill="white"/>
<text x="80" y="440" font-family="Georgia, serif" font-size="60" fill="white" font-weight="700" letter-spacing="-1">Grow your Instagram</text>
<text x="80" y="516" font-family="Georgia, serif" font-size="60" fill="#E1306C" font-weight="700" letter-spacing="-1">in Nigeria 2026</text>
<text x="80" y="590" font-family="system-ui" font-size="22" fill="rgba(255,255,255,0.3)" letter-spacing="6">NITRO BLOG</text>
</svg>
