<svg width="1200" height="640" xmlns="http://www.w3.org/2000/svg">
<rect width="1200" height="640" fill="#0a1a14"/>
<rect x="600" y="-80" width="720" height="720" rx="360" fill="#1d6b4f" opacity="0.12"/>
<rect x="700" y="0" width="560" height="560" rx="280" fill="#1d6b4f" opacity="0.1"/>
<rect x="800" y="80" width="400" height="400" rx="200" fill="#1d6b4f" opacity="0.15"/>
<rect x="680" y="110" width="440" height="160" rx="24" fill="rgba(29,107,79,0.12)" stroke="rgba(110,231,183,0.12)" stroke-width="2"/>
<text x="740" y="180" font-family="'JetBrains Mono', monospace" font-size="56" fill="#6ee7b7" font-weight="700">₦50,000</text>
<text x="740" y="236" font-family="system-ui" font-size="22" fill="rgba(110,231,183,0.4)">Balance updated</text>
<rect x="680" y="300" width="200" height="68" rx="16" fill="#1d6b4f" opacity="0.5"/>
<text x="720" y="344" font-family="system-ui" font-size="24" fill="#6ee7b7" font-weight="500">Paystack</text>
<rect x="900" y="300" width="220" height="68" rx="16" fill="rgba(29,107,79,0.15)" stroke="rgba(110,231,183,0.1)" stroke-width="2"/>
<text x="936" y="344" font-family="system-ui" font-size="24" fill="rgba(110,231,183,0.5)">Bank transfer</text>
<polygon points="0,640 0,400 400,640" fill="#1d6b4f" opacity="0.06"/>
<rect x="72" y="72" width="104" height="104" rx="28" fill="#1d6b4f"/>
<text x="98" y="144" font-family="system-ui" font-size="52" fill="#6ee7b7" font-weight="700">₦</text>
<text x="80" y="460" font-family="Georgia, serif" font-size="64" fill="white" font-weight="700" letter-spacing="-1">How to add funds</text>
<text x="80" y="536" font-family="Georgia, serif" font-size="64" fill="#6ee7b7" font-weight="700" letter-spacing="-1">to your wallet</text>
<text x="80" y="600" font-family="system-ui" font-size="24" fill="rgba(255,255,255,0.35)" letter-spacing="6">NITRO BLOG</text>
</svg>
