<svg width="1200" height="640" xmlns="http://www.w3.org/2000/svg">
<rect width="1200" height="640" fill="#1a0f14"/>
<circle cx="1000" cy="80" r="400" fill="#c47d8e" opacity="0.15"/>
<circle cx="1080" cy="160" r="260" fill="#c47d8e" opacity="0.12"/>
<circle cx="1120" cy="200" r="140" fill="#c47d8e" opacity="0.2"/>
<rect x="720" y="120" width="400" height="240" rx="28" fill="rgba(196,125,142,0.08)" stroke="rgba(196,125,142,0.15)" stroke-width="2"/>
<rect x="760" y="160" width="120" height="16" rx="8" fill="rgba(196,125,142,0.3)"/>
<rect x="760" y="192" width="200" height="12" rx="6" fill="rgba(196,125,142,0.15)"/>
<rect x="760" y="220" width="160" height="12" rx="6" fill="rgba(196,125,142,0.1)"/>
<rect x="760" y="268" width="140" height="56" rx="16" fill="#c47d8e" opacity="0.4"/>
<text x="796" y="304" font-family="system-ui" font-size="22" fill="white" font-weight="500">Place order</text>
<polygon points="0,640 0,480 360,640" fill="#c47d8e" opacity="0.08"/>
<polygon points="0,640 0,560 200,640" fill="#c47d8e" opacity="0.12"/>
<rect x="72" y="72" width="104" height="104" rx="28" fill="#c47d8e"/>
<path d="M104,124 L120,140 L144,108" fill="none" stroke="white" stroke-width="5" stroke-linecap="round" stroke-linejoin="round"/>
<text x="80" y="460" font-family="Georgia, serif" font-size="64" fill="white" font-weight="700" letter-spacing="-1">How to place your</text>
<text x="80" y="536" font-family="Georgia, serif" font-size="64" fill="#c47d8e" font-weight="700" letter-spacing="-1">first order</text>
<text x="80" y="600" font-family="system-ui" font-size="24" fill="rgba(255,255,255,0.35)" letter-spacing="6">NITRO BLOG</text>
</svg>
