<svg width="1200" height="640" xmlns="http://www.w3.org/2000/svg">
<rect width="1200" height="640" fill="#1a0f14"/>
<circle cx="980" cy="140" r="340" fill="#60a5fa" opacity="0.06"/>
<circle cx="1040" cy="220" r="200" fill="#60a5fa" opacity="0.04"/>
<polygon points="0,640 0,540 260,640" fill="#c47d8e" opacity="0.06"/>
<rect x="740" y="120" width="360" height="260" rx="24" fill="rgba(96,165,250,0.04)" stroke="rgba(96,165,250,0.08)" stroke-width="1.5"/>
<circle cx="780" cy="170" r="8" fill="#34d399"/><rect x="800" y="164" width="100" height="10" rx="5" fill="rgba(52,211,153,0.2)"/><text x="910" y="174" font-family="system-ui" font-size="11" fill="rgba(52,211,153,0.5)">Completed</text>
<circle cx="780" cy="210" r="8" fill="#60a5fa"/><rect x="800" y="204" width="140" height="10" rx="5" fill="rgba(96,165,250,0.2)"/><text x="950" y="214" font-family="system-ui" font-size="11" fill="rgba(96,165,250,0.5)">In Progress</text>
<circle cx="780" cy="250" r="8" fill="#e0a458"/><rect x="800" y="244" width="80" height="10" rx="5" fill="rgba(224,164,88,0.2)"/><text x="890" y="254" font-family="system-ui" font-size="11" fill="rgba(224,164,88,0.5)">Pending</text>
<circle cx="780" cy="290" r="8" fill="#a78bfa"/><rect x="800" y="284" width="120" height="10" rx="5" fill="rgba(167,139,250,0.15)"/><text x="930" y="294" font-family="system-ui" font-size="11" fill="rgba(167,139,250,0.5)">Processing</text>
<rect x="72" y="72" width="96" height="96" rx="24" fill="#60a5fa"/>
<rect x="96" y="96" width="48" height="6" rx="3" fill="white" opacity="0.9"/>
<rect x="96" y="110" width="48" height="6" rx="3" fill="white" opacity="0.6"/>
<rect x="96" y="124" width="48" height="6" rx="3" fill="white" opacity="0.3"/>
<rect x="96" y="138" width="48" height="6" rx="3" fill="white" opacity="0.15"/>
<text x="80" y="440" font-family="Georgia, serif" font-size="60" fill="white" font-weight="700" letter-spacing="-1">Order statuses</text>
<text x="80" y="516" font-family="Georgia, serif" font-size="60" fill="#60a5fa" font-weight="700" letter-spacing="-1">explained</text>
<text x="80" y="590" font-family="system-ui" font-size="22" fill="rgba(255,255,255,0.3)" letter-spacing="6">NITRO BLOG</text>
</svg>
