<svg width="1200" height="640" xmlns="http://www.w3.org/2000/svg">
<rect width="1200" height="640" fill="#1a0f14"/>
<circle cx="1000" cy="120" r="360" fill="#6ee7b7" opacity="0.05"/>
<circle cx="1060" cy="200" r="220" fill="#6ee7b7" opacity="0.04"/>
<polygon points="0,640 0,540 260,640" fill="#c47d8e" opacity="0.06"/>
<rect x="740" y="120" width="360" height="240" rx="24" fill="rgba(110,231,183,0.04)" stroke="rgba(110,231,183,0.08)" stroke-width="1.5"/>
<circle cx="840" cy="200" r="24" fill="rgba(110,231,183,0.1)" stroke="rgba(110,231,183,0.2)" stroke-width="1.5"/>
<circle cx="840" cy="194" r="8" fill="none" stroke="#6ee7b7" stroke-width="1.5"/><path d="M832,208 C832,204 836,202 840,202 C844,202 848,204 848,208" fill="none" stroke="#6ee7b7" stroke-width="1.5"/>
<path d="M864,200 L900,200" stroke="#6ee7b7" stroke-width="1.5" stroke-dasharray="4,4" opacity="0.4"/>
<circle cx="920" cy="200" r="24" fill="rgba(110,231,183,0.1)" stroke="rgba(110,231,183,0.2)" stroke-width="1.5"/>
<circle cx="920" cy="194" r="8" fill="none" stroke="#6ee7b7" stroke-width="1.5"/><path d="M912,208 C912,204 916,202 920,202 C924,202 928,204 928,208" fill="none" stroke="#6ee7b7" stroke-width="1.5"/>
<text x="840" y="260" font-family="system-ui" font-size="13" fill="rgba(110,231,183,0.4)" text-anchor="middle">You</text>
<text x="920" y="260" font-family="system-ui" font-size="13" fill="rgba(110,231,183,0.4)" text-anchor="middle">Friend</text>
<text x="880" y="310" font-family="'JetBrains Mono',monospace" font-size="16" fill="#6ee7b7" text-anchor="middle" opacity="0.5">₦500 + ₦500</text>
<rect x="72" y="72" width="96" height="96" rx="24" fill="#059669"/>
<path d="M108,100 L108,100 C108,100 120,88 132,100" fill="none" stroke="white" stroke-width="3.5" stroke-linecap="round"/>
<path d="M104,120 L104,148 C104,156 112,162 120,162 C128,162 136,156 136,148 L136,120" fill="none" stroke="white" stroke-width="3" stroke-linecap="round"/>
<text x="80" y="440" font-family="Georgia, serif" font-size="60" fill="white" font-weight="700" letter-spacing="-1">Refer friends,</text>
<text x="80" y="516" font-family="Georgia, serif" font-size="60" fill="#6ee7b7" font-weight="700" letter-spacing="-1">earn rewards</text>
<text x="80" y="590" font-family="system-ui" font-size="22" fill="rgba(255,255,255,0.3)" letter-spacing="6">NITRO BLOG</text>
</svg>
