<svg width="1200" height="640" xmlns="http://www.w3.org/2000/svg">
<rect width="1200" height="640" fill="#1a140a"/>
<circle cx="840" cy="180" r="60" fill="rgba(251,191,36,0.08)" stroke="rgba(251,191,36,0.15)" stroke-width="2"/>
<circle cx="1040" cy="260" r="60" fill="rgba(251,191,36,0.08)" stroke="rgba(251,191,36,0.15)" stroke-width="2"/>
<circle cx="920" cy="360" r="60" fill="rgba(251,191,36,0.08)" stroke="rgba(251,191,36,0.15)" stroke-width="2"/>
<circle cx="720" cy="320" r="60" fill="rgba(251,191,36,0.08)" stroke="rgba(251,191,36,0.15)" stroke-width="2"/>
<circle cx="1080" cy="120" r="40" fill="rgba(251,191,36,0.06)" stroke="rgba(251,191,36,0.1)" stroke-width="2"/>
<line x1="840" y1="180" x2="1040" y2="260" stroke="rgba(251,191,36,0.1)" stroke-width="3"/>
<line x1="840" y1="180" x2="920" y2="360" stroke="rgba(251,191,36,0.1)" stroke-width="3"/>
<line x1="840" y1="180" x2="720" y2="320" stroke="rgba(251,191,36,0.1)" stroke-width="3"/>
<line x1="1040" y1="260" x2="920" y2="360" stroke="rgba(251,191,36,0.08)" stroke-width="2"/>
<line x1="1040" y1="260" x2="1080" y2="120" stroke="rgba(251,191,36,0.08)" stroke-width="2"/>
<circle cx="840" cy="180" r="24" fill="rgba(251,191,36,0.2)"/>
<circle cx="1040" cy="260" r="20" fill="rgba(251,191,36,0.12)"/>
<circle cx="920" cy="360" r="20" fill="rgba(251,191,36,0.12)"/>
<circle cx="720" cy="320" r="20" fill="rgba(251,191,36,0.1)"/>
<circle cx="1080" cy="120" r="16" fill="rgba(251,191,36,0.1)"/>
<text x="840" y="188" font-family="system-ui" font-size="20" fill="rgba(251,191,36,0.7)" text-anchor="middle" font-weight="600">YOU</text>
<polygon points="0,640 0,480 320,640" fill="rgba(251,191,36,0.04)"/>
<rect x="72" y="72" width="104" height="104" rx="28" fill="#b45309"/>
<circle cx="112" cy="112" r="16" fill="none" stroke="white" stroke-width="4"/>
<circle cx="144" cy="136" r="12" fill="none" stroke="rgba(255,255,255,0.6)" stroke-width="3"/>
<line x1="124" y1="124" x2="134" y2="128" stroke="rgba(255,255,255,0.5)" stroke-width="3"/>
<text x="80" y="460" font-family="Georgia, serif" font-size="64" fill="white" font-weight="700" letter-spacing="-1">Referral program</text>
<text x="80" y="536" font-family="Georgia, serif" font-size="64" fill="#fbbf24" font-weight="700" letter-spacing="-1">explained</text>
<text x="80" y="600" font-family="system-ui" font-size="24" fill="rgba(255,255,255,0.35)" letter-spacing="6">NITRO BLOG</text>
</svg>
