<svg width="1200" height="640" xmlns="http://www.w3.org/2000/svg">
<rect width="1200" height="640" fill="#1a0f14"/>
<circle cx="1000" cy="120" r="350" fill="#34d399" opacity="0.06"/>
<circle cx="1060" cy="200" r="210" fill="#34d399" opacity="0.04"/>
<polygon points="0,640 0,530 260,640" fill="#c47d8e" opacity="0.06"/>
<rect x="740" y="110" width="360" height="270" rx="24" fill="rgba(52,211,153,0.03)" stroke="rgba(52,211,153,0.08)" stroke-width="1.5"/>
<circle cx="860" cy="190" r="24" fill="rgba(52,211,153,0.1)" stroke="rgba(52,211,153,0.2)" stroke-width="1.5"/>
<text x="860" y="196" font-family="system-ui" font-size="14" fill="rgba(52,211,153,0.5)" text-anchor="middle">API</text>
<path d="M884,190 L910,190" stroke="rgba(52,211,153,0.2)" stroke-width="1.5" stroke-dasharray="4,3"/>
<rect x="910" y="170" width="80" height="40" rx="10" fill="rgba(52,211,153,0.08)" stroke="rgba(52,211,153,0.15)" stroke-width="1"/>
<text x="950" y="195" font-family="system-ui" font-size="13" fill="rgba(52,211,153,0.4)" text-anchor="middle">Panel</text>
<path d="M990,190 L1016,190" stroke="rgba(52,211,153,0.2)" stroke-width="1.5" stroke-dasharray="4,3"/>
<circle cx="1040" cy="190" r="24" fill="rgba(52,211,153,0.1)" stroke="rgba(52,211,153,0.2)" stroke-width="1.5"/>
<text x="1040" y="196" font-family="system-ui" font-size="11" fill="rgba(52,211,153,0.5)" text-anchor="middle">Client</text>
<rect x="830" y="260" width="180" height="36" rx="10" fill="rgba(52,211,153,0.12)" stroke="rgba(52,211,153,0.2)" stroke-width="1"/>
<text x="920" y="283" font-family="system-ui" font-size="14" fill="rgba(52,211,153,0.6)" text-anchor="middle" font-weight="500">₦ Profit</text>
<rect x="830" y="310" width="180" height="6" rx="3" fill="rgba(255,255,255,0.04)"/>
<rect x="830" y="310" width="126" height="6" rx="3" fill="rgba(52,211,153,0.2)"/>
<text x="830" y="340" font-family="system-ui" font-size="12" fill="rgba(52,211,153,0.3)">70% margin on resold services</text>
<rect x="72" y="72" width="96" height="96" rx="24" fill="#34d399"/>
<text x="96" y="140" font-family="Georgia, serif" font-size="52" fill="white" font-weight="700">₦</text>
<text x="80" y="440" font-family="Georgia, serif" font-size="56" fill="white" font-weight="700" letter-spacing="-1">Start an SMM</text>
<text x="80" y="516" font-family="Georgia, serif" font-size="56" fill="#34d399" font-weight="700" letter-spacing="-1">reseller business</text>
<text x="80" y="590" font-family="system-ui" font-size="22" fill="rgba(255,255,255,0.3)" letter-spacing="6">NITRO BLOG</text>
</svg>
