<svg width="1200" height="640" xmlns="http://www.w3.org/2000/svg">
<rect width="1200" height="640" fill="#1a0f14"/>
<circle cx="980" cy="140" r="320" fill="#c47d8e" opacity="0.07"/>
<polygon points="0,640 0,560 200,640" fill="#c47d8e" opacity="0.05"/>
<!-- Side-by-side comparison cards -->
<rect x="700" y="90" width="200" height="260" rx="18" fill="rgba(196,125,142,0.06)" stroke="rgba(196,125,142,0.12)" stroke-width="1.5"/>
<rect x="940" y="90" width="200" height="260" rx="18" fill="rgba(196,125,142,0.06)" stroke="rgba(196,125,142,0.12)" stroke-width="1.5"/>
<!-- Card A header -->
<rect x="720" y="110" width="160" height="24" rx="6" fill="rgba(196,125,142,0.2)"/>
<rect x="730" y="117" width="50" height="10" rx="4" fill="rgba(196,125,142,0.35)"/>
<!-- Card A rows -->
<rect x="720" y="150" width="160" height="8" rx="4" fill="rgba(196,125,142,0.12)"/>
<rect x="720" y="170" width="130" height="8" rx="4" fill="rgba(196,125,142,0.08)"/>
<rect x="720" y="190" width="145" height="8" rx="4" fill="rgba(196,125,142,0.08)"/>
<rect x="720" y="210" width="120" height="8" rx="4" fill="rgba(196,125,142,0.08)"/>
<!-- Card A check -->
<circle cx="860" cy="260" r="14" fill="rgba(52,211,153,0.15)"/>
<path d="M854,260 L858,264 L866,256" fill="none" stroke="#34d399" stroke-width="2" stroke-linecap="round"/>
<!-- Card B header -->
<rect x="960" y="110" width="160" height="24" rx="6" fill="rgba(196,125,142,0.2)"/>
<rect x="970" y="117" width="60" height="10" rx="4" fill="rgba(196,125,142,0.35)"/>
<!-- Card B rows -->
<rect x="960" y="150" width="140" height="8" rx="4" fill="rgba(196,125,142,0.12)"/>
<rect x="960" y="170" width="155" height="8" rx="4" fill="rgba(196,125,142,0.08)"/>
<rect x="960" y="190" width="110" height="8" rx="4" fill="rgba(196,125,142,0.08)"/>
<rect x="960" y="210" width="140" height="8" rx="4" fill="rgba(196,125,142,0.08)"/>
<!-- Card B X -->
<circle cx="1100" cy="260" r="14" fill="rgba(239,68,68,0.12)"/>
<path d="M1094,254 L1106,266 M1106,254 L1094,266" fill="none" stroke="#ef4444" stroke-width="2" stroke-linecap="round"/>
<!-- VS badge -->
<circle cx="920" cy="220" r="22" fill="#c47d8e"/>
<text x="920" y="227" font-family="system-ui" font-size="15" fill="white" text-anchor="middle" font-weight="700">VS</text>
<!-- Icon -->
<rect x="72" y="72" width="96" height="96" rx="24" fill="#c47d8e"/>
<text x="98" y="136" font-family="Georgia, serif" font-size="48" fill="white" font-weight="700">⚖</text>
<!-- Title -->
<text x="80" y="440" font-family="Georgia, serif" font-size="52" fill="white" font-weight="700" letter-spacing="-1">SMM panel</text>
<text x="80" y="516" font-family="Georgia, serif" font-size="52" fill="#c47d8e" font-weight="700" letter-spacing="-1">comparison 2026</text>
<text x="80" y="590" font-family="system-ui" font-size="22" fill="rgba(255,255,255,0.3)" letter-spacing="6">NITRO BLOG</text>
</svg>
