<svg width="1200" height="640" xmlns="http://www.w3.org/2000/svg">
<rect width="1200" height="640" fill="#1a0f14"/>
<circle cx="1000" cy="130" r="350" fill="#0088cc" opacity="0.06"/>
<circle cx="1060" cy="210" r="210" fill="#0088cc" opacity="0.04"/>
<polygon points="0,640 0,530 260,640" fill="#c47d8e" opacity="0.06"/>
<rect x="740" y="110" width="360" height="270" rx="24" fill="rgba(0,136,204,0.03)" stroke="rgba(0,136,204,0.08)" stroke-width="1.5"/>
<circle cx="880" cy="200" r="22" fill="rgba(0,136,204,0.12)" stroke="rgba(0,136,204,0.2)" stroke-width="1.5"/>
<circle cx="920" cy="185" r="22" fill="rgba(0,136,204,0.15)" stroke="rgba(0,136,204,0.25)" stroke-width="1.5"/>
<circle cx="960" cy="200" r="22" fill="rgba(0,136,204,0.12)" stroke="rgba(0,136,204,0.2)" stroke-width="1.5"/>
<path d="M880,222 L880,240 C880,248 888,254 900,254 L940,254 C952,254 960,248 960,240 L960,222" fill="none" stroke="rgba(0,136,204,0.15)" stroke-width="1.5"/>
<text x="920" y="280" font-family="system-ui" font-size="14" fill="rgba(0,136,204,0.5)" text-anchor="middle" font-weight="600">+ 1,000 members</text>
<rect x="830" y="300" width="180" height="1" fill="rgba(0,136,204,0.1)"/>
<rect x="850" y="320" width="140" height="28" rx="8" fill="rgba(0,136,204,0.12)"/>
<text x="920" y="339" font-family="system-ui" font-size="13" fill="rgba(0,136,204,0.5)" text-anchor="middle" font-weight="500">Join Channel</text>
<rect x="72" y="72" width="96" height="96" rx="24" fill="#0088cc"/>
<path d="M100,120 L148,104 L118,136 L112,124 Z" fill="white" opacity="0.9"/>
<text x="80" y="440" font-family="Georgia, serif" font-size="56" fill="white" font-weight="700" letter-spacing="-1">Buy Telegram</text>
<text x="80" y="516" font-family="Georgia, serif" font-size="56" fill="#0088cc" font-weight="700" letter-spacing="-1">members</text>
<text x="80" y="590" font-family="system-ui" font-size="22" fill="rgba(255,255,255,0.3)" letter-spacing="6">NITRO BLOG</text>
</svg>
