<svg width="1200" height="640" xmlns="http://www.w3.org/2000/svg">
<rect width="1200" height="640" fill="#1a0f14"/>
<circle cx="980" cy="130" r="350" fill="#00f2ea" opacity="0.06"/>
<circle cx="1050" cy="200" r="220" fill="#ff0050" opacity="0.05"/>
<polygon points="0,640 0,530 260,640" fill="#c47d8e" opacity="0.06"/>
<rect x="740" y="110" width="360" height="270" rx="24" fill="rgba(0,242,234,0.03)" stroke="rgba(0,242,234,0.08)" stroke-width="1.5"/>
<path d="M860,180 L860,320" fill="none" stroke="rgba(0,242,234,0.08)" stroke-width="1"/>
<path d="M920,180 L920,320" fill="none" stroke="rgba(0,242,234,0.08)" stroke-width="1"/>
<path d="M980,180 L980,320" fill="none" stroke="rgba(0,242,234,0.08)" stroke-width="1"/>
<rect x="845" y="240" width="30" height="80" rx="6" fill="rgba(0,242,234,0.15)"/>
<rect x="905" y="200" width="30" height="120" rx="6" fill="rgba(255,0,80,0.15)"/>
<rect x="965" y="220" width="30" height="100" rx="6" fill="rgba(0,242,234,0.2)"/>
<text x="860" y="350" font-family="system-ui" font-size="12" fill="rgba(0,242,234,0.35)" text-anchor="middle">Views</text>
<text x="920" y="350" font-family="system-ui" font-size="12" fill="rgba(255,0,80,0.35)" text-anchor="middle">Likes</text>
<text x="980" y="350" font-family="system-ui" font-size="12" fill="rgba(0,242,234,0.35)" text-anchor="middle">Follows</text>
<rect x="72" y="72" width="96" height="96" rx="24" fill="#000"/>
<rect x="72" y="72" width="96" height="96" rx="24" fill="none" stroke="#00f2ea" stroke-width="2.5"/>
<path d="M108,104 C108,104 122,96 122,114 L122,142 M118,106 C118,106 136,96 136,114 L136,142" fill="none" stroke="white" stroke-width="3" stroke-linecap="round"/>
<text x="80" y="440" font-family="Georgia, serif" font-size="56" fill="white" font-weight="700" letter-spacing="-1">TikTok views</text>
<text x="80" y="516" font-family="Georgia, serif" font-size="56" fill="#00f2ea" font-weight="700" letter-spacing="-1">&amp; followers</text>
<text x="80" y="590" font-family="system-ui" font-size="22" fill="rgba(255,255,255,0.3)" letter-spacing="6">NITRO BLOG</text>
</svg>
