<svg width="1200" height="640" xmlns="http://www.w3.org/2000/svg">
<rect width="1200" height="640" fill="#120f1a"/>
<rect x="640" y="60" width="240" height="500" rx="20" fill="rgba(139,92,214,0.06)" stroke="rgba(139,92,214,0.12)" stroke-width="2"/>
<rect x="670" y="100" width="180" height="16" rx="8" fill="rgba(139,92,214,0.25)"/>
<rect x="670" y="132" width="120" height="12" rx="6" fill="rgba(139,92,214,0.12)"/>
<text x="760" y="500" font-family="system-ui" font-size="22" fill="rgba(139,92,214,0.5)" text-anchor="middle">Premium</text>
<rect x="910" y="180" width="240" height="380" rx="20" fill="rgba(96,165,250,0.06)" stroke="rgba(96,165,250,0.12)" stroke-width="2"/>
<rect x="940" y="220" width="180" height="16" rx="8" fill="rgba(96,165,250,0.25)"/>
<rect x="940" y="252" width="120" height="12" rx="6" fill="rgba(96,165,250,0.12)"/>
<text x="1030" y="500" font-family="system-ui" font-size="22" fill="rgba(96,165,250,0.5)" text-anchor="middle">Standard</text>
<rect x="370" y="320" width="240" height="240" rx="20" fill="rgba(245,158,11,0.06)" stroke="rgba(245,158,11,0.12)" stroke-width="2"/>
<rect x="400" y="360" width="180" height="16" rx="8" fill="rgba(245,158,11,0.2)"/>
<rect x="400" y="392" width="120" height="12" rx="6" fill="rgba(245,158,11,0.1)"/>
<text x="490" y="500" font-family="system-ui" font-size="22" fill="rgba(245,158,11,0.5)" text-anchor="middle">Budget</text>
<polygon points="0,640 0,520 240,640" fill="rgba(139,92,214,0.06)"/>
<rect x="72" y="72" width="104" height="104" rx="28" fill="#7c3aed"/>
<polygon points="124,88 152,148 96,148" fill="none" stroke="white" stroke-width="4" stroke-linejoin="round"/>
<text x="80" y="460" font-family="Georgia, serif" font-size="64" fill="white" font-weight="700" letter-spacing="-1">Understanding</text>
<text x="80" y="536" font-family="Georgia, serif" font-size="64" fill="#a78bfa" font-weight="700" letter-spacing="-1">service tiers</text>
<text x="80" y="600" font-family="system-ui" font-size="24" fill="rgba(255,255,255,0.35)" letter-spacing="6">NITRO BLOG</text>
</svg>
