<svg width="1200" height="640" xmlns="http://www.w3.org/2000/svg">
<rect width="1200" height="640" fill="#1a0f14"/>
<circle cx="1000" cy="120" r="350" fill="#8b5cf6" opacity="0.07"/>
<circle cx="1060" cy="200" r="210" fill="#8b5cf6" opacity="0.05"/>
<polygon points="0,640 0,530 260,640" fill="#c47d8e" opacity="0.06"/>
<rect x="740" y="110" width="360" height="270" rx="24" fill="rgba(139,92,246,0.04)" stroke="rgba(139,92,246,0.08)" stroke-width="1.5"/>
<circle cx="840" cy="200" r="28" fill="rgba(225,48,108,0.1)" stroke="rgba(225,48,108,0.2)" stroke-width="1.5"/>
<text x="840" y="207" font-family="system-ui" font-size="18" fill="rgba(225,48,108,0.5)" text-anchor="middle">IG</text>
<circle cx="920" cy="180" r="28" fill="rgba(0,242,234,0.1)" stroke="rgba(0,242,234,0.2)" stroke-width="1.5"/>
<text x="920" y="187" font-family="system-ui" font-size="18" fill="rgba(0,242,234,0.5)" text-anchor="middle">TT</text>
<circle cx="1000" cy="200" r="28" fill="rgba(255,0,0,0.1)" stroke="rgba(255,0,0,0.2)" stroke-width="1.5"/>
<text x="1000" y="207" font-family="system-ui" font-size="18" fill="rgba(255,0,0,0.5)" text-anchor="middle">YT</text>
<path d="M868,200 L892,190" stroke="rgba(139,92,246,0.2)" stroke-width="1.5"/>
<path d="M948,185 L972,195" stroke="rgba(139,92,246,0.2)" stroke-width="1.5"/>
<rect x="860" y="270" width="120" height="36" rx="10" fill="rgba(139,92,246,0.12)" stroke="rgba(139,92,246,0.2)" stroke-width="1"/>
<text x="920" y="294" font-family="system-ui" font-size="14" fill="rgba(139,92,246,0.6)" text-anchor="middle" font-weight="500">SMM Panel</text>
<path d="M920,250 L920,270" stroke="rgba(139,92,246,0.2)" stroke-width="1.5"/>
<circle cx="920" cy="244" r="14" fill="rgba(139,92,246,0.08)" stroke="rgba(139,92,246,0.15)" stroke-width="1"/>
<text x="920" y="249" font-family="system-ui" font-size="12" fill="rgba(139,92,246,0.4)" text-anchor="middle">?</text>
<rect x="830" y="330" width="180" height="20" rx="4" fill="rgba(139,92,246,0.06)"/>
<text x="920" y="345" font-family="system-ui" font-size="12" fill="rgba(139,92,246,0.3)" text-anchor="middle">Complete beginner guide</text>
<rect x="72" y="72" width="96" height="96" rx="24" fill="#8b5cf6"/>
<text x="100" y="138" font-family="Georgia, serif" font-size="52" fill="white" font-weight="700">?</text>
<text x="80" y="440" font-family="Georgia, serif" font-size="56" fill="white" font-weight="700" letter-spacing="-1">What is an</text>
<text x="80" y="516" font-family="Georgia, serif" font-size="56" fill="#8b5cf6" font-weight="700" letter-spacing="-1">SMM panel?</text>
<text x="80" y="590" font-family="system-ui" font-size="22" fill="rgba(255,255,255,0.3)" letter-spacing="6">NITRO BLOG</text>
</svg>
