<svg width="1200" height="640" xmlns="http://www.w3.org/2000/svg">
<rect width="1200" height="640" fill="#1a0f14"/>
<circle cx="1000" cy="130" r="350" fill="#FF0000" opacity="0.06"/>
<circle cx="1060" cy="210" r="210" fill="#FF0000" opacity="0.04"/>
<polygon points="0,640 0,530 260,640" fill="#c47d8e" opacity="0.06"/>
<rect x="740" y="110" width="360" height="270" rx="24" fill="rgba(255,0,0,0.03)" stroke="rgba(255,0,0,0.08)" stroke-width="1.5"/>
<rect x="780" y="155" width="280" height="44" rx="10" fill="rgba(255,0,0,0.08)"/>
<text x="920" y="183" font-family="system-ui" font-size="16" fill="rgba(255,0,0,0.5)" text-anchor="middle" font-weight="600">1,000 subscribers</text>
<rect x="780" y="215" width="280" height="6" rx="3" fill="rgba(255,255,255,0.05)"/>
<rect x="780" y="215" width="196" height="6" rx="3" fill="rgba(255,0,0,0.25)"/>
<text x="780" y="245" font-family="system-ui" font-size="13" fill="rgba(255,0,0,0.3)">70% to monetisation</text>
<rect x="780" y="270" width="130" height="36" rx="8" fill="rgba(255,0,0,0.15)"/>
<text x="845" y="294" font-family="system-ui" font-size="14" fill="#FF4444" text-anchor="middle" font-weight="600">Subscribe</text>
<text x="780" y="340" font-family="system-ui" font-size="13" fill="rgba(255,255,255,0.15)">↑ 4,000 watch hours needed</text>
<rect x="72" y="72" width="96" height="96" rx="24" fill="#FF0000"/>
<path d="M112,100 L140,120 L112,140 Z" fill="white"/>
<text x="80" y="440" font-family="Georgia, serif" font-size="56" fill="white" font-weight="700" letter-spacing="-1">Buy YouTube</text>
<text x="80" y="516" font-family="Georgia, serif" font-size="56" fill="#FF4444" font-weight="700" letter-spacing="-1">subscribers</text>
<text x="80" y="590" font-family="system-ui" font-size="22" fill="rgba(255,255,255,0.3)" letter-spacing="6">NITRO BLOG</text>
</svg>
